<?xml version="1.0" encoding="utf-8"?>
<!-- Generator: Adobe Illustrator 23.0.6, SVG Export Plug-In . SVG Version: 6.00 Build 0)  -->
<svg version="1.1" id="Слой_1" xmlns="http://www.w3.org/2000/svg" xmlns:xlink="http://www.w3.org/1999/xlink" x="0px" y="0px"
	 viewBox="0 0 215 195" style="enable-background:new 0 0 215 195;" xml:space="preserve">
<style type="text/css">
	.st0{fill:#FFD66B;}
	.st1{fill:#E5E5E5;}
</style>
<path class="st0" d="M107.5,68.5c-0.1-0.5-0.5-0.9-1-0.9c-1.8,0-6.2-0.6-10.6-5c-6.2-6.2-9.2-7.3-13-7.3c-4.2,0-8.9,2.3-13,6.4
	c-4.2,4.2-7.4,5.8-11.6,5.8c-4.2,0-8.5-3.7-10.7-5.8c-2.2-2.2-7.8-6.4-13-6.4c-4.5,0-8.8,3.3-12.3,5.9l-0.6,0.5
	c-0.7,0.5-1.3,1-1.9,1.5c-2.5,2.1-5,4.1-9.7,4.4c-0.5,0-1,0.5-1,1c0,0.6,0.5,1,1.1,1c5.4-0.3,8.3-2.7,10.9-4.8
	c0.6-0.5,1.2-1,1.8-1.5l0.6-0.5c3.2-2.4,7.3-5.5,11.1-5.5c3.7,0,8.7,3,11.6,5.8c2.4,2.4,7.2,6.4,12.1,6.4c4.7,0,8.4-1.9,13-6.4
	c3.8-3.8,7.9-5.8,11.6-5.8c2.9,0,5.3,0.5,11.6,6.7c4.9,4.9,9.8,5.6,12,5.6C107.1,69.7,107.6,69.2,107.5,68.5z"/>
<path class="st0" d="M107.5,44.7c-0.1-0.5-0.5-0.9-1-0.9c-1.8,0-6.2-0.6-10.6-5c-6.2-6.2-9.2-7.3-13-7.3c-4.2,0-8.9,2.3-13,6.4
	c-4.2,4.2-7.4,5.8-11.6,5.8c-4.2,0-8.5-3.7-10.7-5.8c-2.2-2.2-7.8-6.4-13-6.4c-4.5,0-8.8,3.3-12.3,5.9l-0.6,0.5
	c-0.7,0.5-1.3,1-1.9,1.5c-2.5,2.1-5,4.1-9.7,4.4c-0.5,0-1,0.5-1,1c0,0.6,0.5,1,1.1,1c5.4-0.3,8.3-2.7,10.9-4.8
	c0.6-0.5,1.2-1,1.8-1.5l0.6-0.5c3.2-2.4,7.3-5.5,11.1-5.5c3.7,0,8.7,3,11.6,5.8c2.4,2.4,7.2,6.4,12.1,6.4c4.7,0,8.4-1.9,13-6.4
	c3.8-3.8,7.9-5.8,11.6-5.8c2.9,0,5.3,0.5,11.6,6.7c4.9,4.9,9.8,5.6,12,5.6C107.1,45.9,107.6,45.3,107.5,44.7z"/>
<path class="st0" d="M10.3,22c5.4-0.3,8.3-2.7,10.9-4.8c0.6-0.5,1.2-1,1.8-1.5l0.6-0.5c3.2-2.4,7.3-5.5,11.1-5.5
	c3.7,0,8.7,3,11.6,5.8C48.6,18,53.4,22,58.4,22c4.7,0,8.4-1.9,13-6.4c3.8-3.8,7.9-5.8,11.6-5.8c2.9,0,5.3,0.5,11.6,6.7
	c4.9,4.9,9.8,5.6,12,5.6c0.6,0,1.1-0.5,1-1.2c-0.1-0.5-0.5-0.9-1-0.9c-1.8,0-6.2-0.6-10.6-5c-6.2-6.2-9.2-7.3-13-7.3
	c-4.2,0-8.9,2.3-13,6.4c-4.2,4.2-7.4,5.8-11.6,5.8c-4.2,0-8.5-3.7-10.7-5.8c-2.2-2.2-7.8-6.4-13-6.4c-4.5,0-8.8,3.3-12.3,5.9
	L21.8,14c-0.7,0.5-1.3,1-1.9,1.5c-2.5,2.1-5,4.1-9.7,4.4c-0.5,0-1,0.5-1,1C9.2,21.5,9.7,22,10.3,22z"/>
<path class="st1" d="M200.5,140.8c5.5,0,10.1,4.5,9,9.9c-0.6,3.1-1.6,6.2-2.8,9.2c-2.5,6.1-6.2,11.6-10.8,16.2
	c-4.6,4.6-10.2,8.3-16.2,10.8c-3,1.2-6.1,2.2-9.2,2.8c-5.4,1.1-9.9-3.5-9.9-9v-30c0-5.5,4.5-10,10-10H200.5z"/>
</svg>
