<?xml version="1.0" encoding="utf-8"?>
<!-- Generator: Adobe Illustrator 23.0.6, SVG Export Plug-In . SVG Version: 6.00 Build 0)  -->
<svg version="1.1" id="Слой_1" xmlns="http://www.w3.org/2000/svg" xmlns:xlink="http://www.w3.org/1999/xlink" x="0px" y="0px"
	 viewBox="0 0 183 170" style="enable-background:new 0 0 183 170;" xml:space="preserve">
<style type="text/css">
	.st0{fill:none;stroke:#E2001A;stroke-width:2;}
	.st1{fill:#FFD66B;}
</style>
<path class="st0" d="M18.5,10.8c7.3-12.7,25.6-12.7,32.9,0l14.7,25.5c7.3,12.7-1.8,28.5-16.5,28.5H20.3C5.7,64.8-3.5,49,3.8,36.3
	L18.5,10.8z"/>
<path class="st1" d="M166,94.5c5.5,0,10.1,4.5,9.3,10c-0.8,5.4-2.3,10.6-4.4,15.7c-3.4,8.1-8.3,15.5-14.5,21.7
	c-6.2,6.2-13.6,11.2-21.7,14.5c-5,2.1-10.3,3.5-15.7,4.4c-5.5,0.8-10-3.7-10-9.3v-47c0-5.5,4.5-10,10-10H166z"/>
</svg>
