<?xml version="1.0" encoding="utf-8"?>
<!-- Generator: Adobe Illustrator 23.0.6, SVG Export Plug-In . SVG Version: 6.00 Build 0)  -->
<svg version="1.1" id="Слой_1" xmlns="http://www.w3.org/2000/svg" xmlns:xlink="http://www.w3.org/1999/xlink" x="0px" y="0px"
	 viewBox="0 0 193 183" style="enable-background:new 0 0 193 183;" xml:space="preserve">
<style type="text/css">
	.st0{fill:none;stroke:#E2001A;stroke-width:2;}
	.st1{fill:#FFD66B;}
</style>
<path class="st0" d="M136.8,101.6c6.7-4.8,15.7-4.8,22.3,0l24,17.5c6.7,4.8,9.4,13.4,6.9,21.2l-9.2,28.3
	c-2.5,7.8-9.8,13.1-18.1,13.1h-29.7c-8.2,0-15.5-5.3-18.1-13.1l-9.2-28.3c-2.5-7.8,0.2-16.4,6.9-21.2L136.8,101.6z"/>
<path class="st1" d="M15.6,15.9l-8.7-5.6c-0.7-0.4-1.6,0.1-1.6,0.9v11.9c0,0.9,1,1.3,1.7,0.8l8.7-6.3C16.3,17.2,16.2,16.3,15.6,15.9
	z"/>
<path class="st1" d="M36.8,15.9L28,10.4c-0.7-0.4-1.6,0.1-1.6,0.9v11.9c0,0.9,1,1.3,1.7,0.8l8.7-6.3C37.4,17.2,37.4,16.3,36.8,15.9z
	"/>
<path class="st1" d="M57.9,15.9l-8.7-5.6c-0.7-0.4-1.6,0.1-1.6,0.9v11.9c0,0.9,1,1.3,1.7,0.8l8.7-6.3C58.6,17.2,58.5,16.3,57.9,15.9
	z"/>
<path class="st1" d="M79.1,15.9l-8.7-5.6c-0.7-0.4-1.6,0.1-1.6,0.9v11.9c0,0.9,1,1.3,1.7,0.8l8.7-6.3C79.7,17.2,79.7,16.3,79.1,15.9
	z"/>
<path class="st1" d="M100.2,15.9l-8.7-5.6c-0.7-0.4-1.6,0.1-1.6,0.9v11.9c0,0.9,1,1.3,1.7,0.8l8.7-6.3
	C100.9,17.2,100.8,16.3,100.2,15.9z"/>
</svg>
